<?xml version="1.0"?>
<svg xmlns="http://www.w3.org/2000/svg" viewBox="0 0 200 200" width="512" height="512" role="img" aria-label="CassetteCSS">
  <defs>
    
    <radialGradient id="ccss-flange" cx="35%" cy="30%" r="90%">
      <stop offset="0%" stop-color="#fbf6e8"></stop>
      <stop offset="55%" stop-color="#e8e1cf"></stop>
      <stop offset="100%" stop-color="#b9b09a"></stop>
    </radialGradient>
    <radialGradient id="ccss-hubring" cx="40%" cy="35%" r="70%">
      <stop offset="0%" stop-color="#cdc5b3"></stop>
      <stop offset="100%" stop-color="#7a7263"></stop>
    </radialGradient>
  </defs>

  
  <circle cx="100" cy="100" r="96" fill="url(#ccss-flange)" stroke="#0e0d0b" stroke-width="3"></circle>
  <circle cx="100" cy="100" r="92" fill="none" stroke="rgba(255,255,255,0.35)" stroke-width="0.8"></circle>

  
  <path d="M 89.423 24.74 A 6 6 0 0 1 94.555 18.181 A 82 82 0 0 1 173.58 63.806 A 6 6 0 0 1 170.466 71.53 L 138.942 84.267 A 6 6 0 0 1 130.679 81.164 A 36 36 0 0 0 100.973 64.013 A 6 6 0 0 1 94.155 58.409 Z" fill="#3b2d22" stroke="#1d1611" stroke-width="1"></path>
  <path d="M 170.466 128.47 A 6 6 0 0 1 173.58 136.194 A 82 82 0 0 1 94.555 181.819 A 6 6 0 0 1 89.423 175.26 L 94.155 141.591 A 6 6 0 0 1 100.973 135.987 A 36 36 0 0 0 130.679 118.836 A 6 6 0 0 1 138.942 115.733 Z" fill="#3b2d22" stroke="#1d1611" stroke-width="1"></path>
  <path d="M 40.111 146.79 A 6 6 0 0 1 31.865 145.625 A 82 82 0 0 1 31.865 54.375 A 6 6 0 0 1 40.111 53.21 L 66.904 74.142 A 6 6 0 0 1 68.348 82.85 A 36 36 0 0 0 68.348 117.15 A 6 6 0 0 1 66.904 125.858 Z" fill="#3b2d22" stroke="#1d1611" stroke-width="1"></path>

  
  <circle cx="100" cy="100" r="28" fill="url(#ccss-hubring)" stroke="#3d362a" stroke-width="1.2"></circle>
  <circle cx="99.5" cy="99.5" r="28" fill="none" stroke="rgba(255,255,255,0.25)" stroke-width="0.6"></circle>

  
  <circle cx="100" cy="100" r="15" fill="#1a1814"></circle>
  <rect x="113" y="97" width="7" height="6" fill="#1a1814"></rect>

  
  <g>
    <circle cx="115.556" cy="84.444" r="3.2" fill="#bfb6a2" stroke="#3d362a" stroke-width="0.6"></circle>
    <line x1="113.316" y1="84.444" x2="117.79599999999999" y2="84.444" stroke="#1a1612" stroke-width="0.8" stroke-linecap="round"></line>
    <line x1="115.556" y1="82.20400000000001" x2="115.556" y2="86.684" stroke="#1a1612" stroke-width="0.8" stroke-linecap="round"></line>
  </g>
  <g>
    <circle cx="115.556" cy="115.556" r="3.2" fill="#bfb6a2" stroke="#3d362a" stroke-width="0.6"></circle>
    <line x1="113.316" y1="115.556" x2="117.79599999999999" y2="115.556" stroke="#1a1612" stroke-width="0.8" stroke-linecap="round"></line>
    <line x1="115.556" y1="113.316" x2="115.556" y2="117.79599999999999" stroke="#1a1612" stroke-width="0.8" stroke-linecap="round"></line>
  </g>
  <g>
    <circle cx="84.444" cy="115.556" r="3.2" fill="#bfb6a2" stroke="#3d362a" stroke-width="0.6"></circle>
    <line x1="82.20400000000001" y1="115.556" x2="86.684" y2="115.556" stroke="#1a1612" stroke-width="0.8" stroke-linecap="round"></line>
    <line x1="84.444" y1="113.316" x2="84.444" y2="117.79599999999999" stroke="#1a1612" stroke-width="0.8" stroke-linecap="round"></line>
  </g>
  <g>
    <circle cx="84.444" cy="84.444" r="3.2" fill="#bfb6a2" stroke="#3d362a" stroke-width="0.6"></circle>
    <line x1="82.20400000000001" y1="84.444" x2="86.684" y2="84.444" stroke="#1a1612" stroke-width="0.8" stroke-linecap="round"></line>
    <line x1="84.444" y1="82.20400000000001" x2="84.444" y2="86.684" stroke="#1a1612" stroke-width="0.8" stroke-linecap="round"></line>
  </g>

  
  <g transform="translate(30, 56) rotate(-14)">
    <rect x="0" y="0" width="44" height="20" fill="#faf6ee" stroke="#0e0d0b" stroke-width="1"></rect>
    <rect x="0" y="0" width="44" height="7" fill="#ff4f1f"></rect>
    <text x="22" y="5.5" text-anchor="middle" class="ccss-name" font-size="5.5" fill="#faf6ee" letter-spacing="0.4">CASSETTECSS</text>
    <text x="22" y="13" text-anchor="middle" class="ccss-mono" font-size="4" fill="#0e0d0b" letter-spacing="0.3">HI-RES</text>
    <text x="22" y="18" text-anchor="middle" class="ccss-mono" font-size="5" fill="#0e0d0b" letter-spacing="0.4">v1.0</text>
  </g>
</svg>