<?xml version="1.0"?>
<svg xmlns="http://www.w3.org/2000/svg" viewBox="0 0 100 100" width="512" height="512" role="img" aria-label="CassetteCSS reel" fill="currentColor">
  <!-- outer flange ring -->
  <path fill-rule="evenodd" d="M50 4a46 46 0 1 0 0 92 46 46 0 1 0 0-92zm0 9a37 37 0 1 1 0 74 37 37 0 1 1 0-74z"/>
  <!-- hub with spindle hole -->
  <path fill-rule="evenodd" d="M50 39a11 11 0 1 0 0 22 11 11 0 1 0 0-22zm0 6a5 5 0 1 1 0 10 5 5 0 1 1 0-10z"/>
  <!-- three spokes -->
  <rect x="45.5" y="13" width="9" height="28" transform="rotate(0 50 50)"/>
  <rect x="45.5" y="13" width="9" height="28" transform="rotate(120 50 50)"/>
  <rect x="45.5" y="13" width="9" height="28" transform="rotate(240 50 50)"/>
</svg>
